<svg width="24" height="27" viewBox="0 0 24 27" fill="none" xmlns="http://www.w3.org/2000/svg">
<path d="M23.7131 24.8237L18.017 19.0292C19.8744 17.0767 21.0508 14.4313 21.0508 11.471C21.0508 5.55049 16.3453 0.763672 10.5254 0.763672C4.70548 0.763672 0 5.55049 0 11.471C0 17.3916 4.70548 22.1784 10.5254 22.1784C12.7543 22.1784 14.8594 21.4226 16.593 20.2259L22.4129 26.1464C22.5987 26.3354 22.8463 26.3984 23.094 26.3984C23.3416 26.3984 23.5893 26.3354 23.775 26.1464C24.0846 25.7685 24.0846 25.2017 23.7131 24.8237ZM1.85742 11.471C1.85742 6.62123 5.75802 2.65321 10.5254 2.65321C15.2928 2.65321 19.1934 6.62123 19.1934 11.471C19.1934 16.3208 15.2928 20.2889 10.5254 20.2889C5.75802 20.2889 1.85742 16.3208 1.85742 11.471Z" fill="#313133"/>
</svg>
